<?xml version="1.0" standalone="no"?>
<!DOCTYPE svg PUBLIC "-//W3C//DTD SVG 20010904//EN"
 "http://www.w3.org/TR/2001/REC-SVG-20010904/DTD/svg10.dtd">
<svg version="1.0" xmlns="http://www.w3.org/2000/svg"
 width="700.000000pt" height="700.000000pt" viewBox="0 0 700.000000 700.000000"
 preserveAspectRatio="xMidYMid meet">
<metadata>
Created by potrace 1.11, written by Peter Selinger 2001-2013
</metadata>
<g transform="translate(0.000000,700.000000) scale(0.100000,-0.100000)"
fill="#000000" stroke="none">
<path d="M4695 6987 c-83 -34 -121 -68 -211 -187 -27 -36 -54 -72 -61 -80 -7
-8 -40 -51 -74 -95 -33 -44 -116 -151 -182 -239 -252 -328 -382 -497 -537
-701 -87 -115 -197 -259 -243 -320 l-84 -110 -509 -1 c-390 0 -519 -3 -551
-14 -67 -21 -134 -78 -168 -145 l-30 -59 -3 -470 c-2 -259 -4 -472 -6 -473 -1
-1 -409 -4 -907 -5 l-904 -3 -55 -26 c-65 -31 -112 -76 -143 -138 l-22 -46 0
-810 c0 -900 -5 -825 66 -916 27 -35 108 -86 151 -95 37 -8 4674 -7 4710 1 81
18 154 76 195 156 53 106 64 55 -304 1403 l-331 1210 50 125 c27 69 56 140 63
156 8 17 34 82 59 145 25 63 97 243 160 400 64 157 116 290 116 296 0 25 25
32 65 19 49 -16 473 -152 840 -270 149 -48 314 -101 367 -118 53 -17 95 -33
93 -36 -1 -3 -6 -49 -10 -101 -4 -52 -9 -108 -10 -125 -1 -16 -5 -70 -9 -120
-3 -49 -8 -110 -11 -135 -6 -58 -13 -154 -20 -255 -10 -140 -14 -165 -27 -184
-7 -10 -87 -96 -178 -191 -90 -94 -171 -180 -181 -191 -9 -10 -84 -90 -167
-177 -82 -86 -164 -173 -182 -192 -18 -19 -100 -106 -184 -193 -150 -158 -174
-186 -159 -188 16 -1 39 -7 94 -23 31 -9 65 -18 75 -21 11 -2 89 -22 174 -44
544 -142 753 -188 847 -185 65 2 153 16 193 31 8 3 20 7 26 8 30 7 124 59 179
100 65 48 84 67 129 130 112 156 138 308 91 540 -11 54 -91 285 -205 594 -38
102 -42 118 -33 155 6 23 37 140 71 261 120 436 182 671 188 717 10 71 -19
150 -72 196 -28 25 -380 206 -1047 540 l-1005 503 -74 5 c-45 2 -85 -1 -103
-9z m-745 -2387 c36 -138 119 -459 139 -530 11 -41 40 -156 66 -255 26 -99 55
-209 65 -245 l17 -65 -796 1 c-438 1 -801 2 -806 3 -7 1 -10 197 -10 581 l0
580 654 -2 655 -3 16 -65z m-2205 -1240 l0 -145 -580 0 -580 0 -1 140 c-1 77
3 142 7 145 4 3 266 5 581 5 l573 0 0 -145z m-12 -439 c15 -1 17 -15 17 -146
l0 -145 -584 0 -584 0 0 145 1 144 51 3 c41 2 1033 1 1099 -1z"/>
<path d="M827 1754 c-1 -1 -29 -4 -62 -7 -284 -28 -564 -233 -686 -503 -58
-128 -74 -205 -73 -364 0 -158 12 -219 65 -343 120 -283 402 -494 703 -525 94
-9 4245 -7 4316 2 78 11 220 61 293 103 284 165 447 443 447 763 0 324 -173
613 -462 773 -44 24 -200 84 -223 85 -5 1 -32 4 -60 8 -38 6 -4251 13 -4258 8z
m146 -600 c63 -21 130 -84 163 -150 92 -187 -48 -411 -258 -413 -215 -3 -357
221 -266 419 21 43 113 127 159 143 58 20 144 21 202 1z m1355 -9 c57 -27 115
-82 144 -138 31 -59 32 -183 1 -249 -45 -99 -139 -161 -251 -164 -176 -6 -304
119 -304 299 0 115 91 230 212 268 48 15 149 7 198 -16z m1409 -3 c54 -28 107
-81 135 -135 18 -33 22 -59 23 -127 0 -76 -3 -90 -29 -135 -59 -100 -142 -151
-253 -154 -58 -2 -77 3 -130 29 -235 117 -214 444 34 536 54 20 167 13 220
-14z m1327 8 c64 -25 125 -81 158 -148 28 -58 31 -175 5 -234 -27 -63 -102
-135 -166 -159 -67 -25 -164 -23 -226 7 -72 34 -145 123 -161 197 -6 28 -7
105 0 133 38 171 221 267 390 204z"/>
</g>
</svg>
